<svg xmlns="http://www.w3.org/2000/svg" xmlns:xlink="http://www.w3.org/1999/xlink" viewBox="0 0 60 41" fill="#fff" fill-rule="evenodd" stroke="#000" stroke-linecap="round" stroke-linejoin="round"><use xlink:href="#A" x=".5" y=".5"/><symbol id="A" overflow="visible"><use xlink:href="#C" stroke="none" fill="#0e6f9c"/><use xlink:href="#C" stroke="#fff" stroke-linejoin="miter" fill="none" stroke-width=".788"/><use xlink:href="#D" stroke="none" fill="#0e6f9c"/><use xlink:href="#D" stroke="#fff" stroke-linejoin="miter" fill="none" stroke-width=".788"/><path d="M22.448 7.08l2.363 3.544-9.056 1.97 1.97-1.575-13.78-2.363L7.486 5.9l13.388 2.362 1.575-1.18zm12.994 8.662l-1.97-3.544 8.27-1.97-1.18 1.575 13.388 2.362-3.15 2.363-13.78-2.363-1.575 1.575zm-4.725-10.63l9.056-2.362.394 3.544-2.363-.394-4.33 3.938-4.33-.787 4.33-3.544-2.756-.394zM26.78 19.288l-8.662 1.575-.394-4.33 2.756.787 4.725-4.33 4.33.787-5.12 4.725 2.362.788z" stroke="none"/></symbol><defs ><path id="C" d="M58.274 11.42c0 6.3-12.994 11.42-29.137 11.42S0 17.72 0 11.42v16.537c0 6.3 12.994 11.42 29.137 11.42s29.137-5.12 29.137-11.42z"/><path id="D" d="M29.137 22.837c16.144 0 29.137-5.12 29.137-11.42S45.28 0 29.137 0 0 5.12 0 11.42s12.994 11.42 29.137 11.42z"/></defs></svg>