<svg xmlns="http://www.w3.org/2000/svg" xmlns:xlink="http://www.w3.org/1999/xlink" viewBox="0 0 49 49" fill="#fff" fill-rule="evenodd" stroke="#000" stroke-linecap="round" stroke-linejoin="round"><style><![CDATA[.B{stroke-linejoin:miter}.C{fill:#036c9b}.D{stroke-width:.787}.E{stroke:#fff}.F{stroke:none}.G{stroke-linecap:square}]]></style><use xlink:href="#A" x=".5" y=".5"/><symbol id="A" overflow="visible"><g class="B C D E"><path d="M0 47.23V5.5h42.113v41.72H0z"/><path d="M47.623 42.113V0l-5.5 5.5v41.72l5.5-5.117zM7.478 0L0 5.117h42.113L47.623 0H7.478z"/></g><g class="F"><path d="M42.113 5.5H0z" class="C"/><path d="M42.113 5.5v41.72z" class="C"/></g><path d="M42.113 5.5v41.72" fill="none" class="B D E G"/><path d="M42.113 5.5H0z" class="C F"/><path d="M42.113 5.5H0" fill="none" class="B D E G"/><path d="M42.113 5.5l5.5-5.5z" class="C F"/><path d="M42.113 5.5l5.5-5.5" fill="none" class="B D E G"/><g class="F"><path d="M22.04 20.073V11.02h1.574l-2.36-3.15-1.968 3.15h1.18v9.052h1.574zm-4.723 1.574l-6.297-6.69 1.18-.787-3.936-.787.787 3.936.787-1.18 6.69 6.297.787-.787zm-2.36 4.33H5.904v-1.574l-3.15 1.968 3.15 2.36v-1.574h9.052v-1.18zm1.574 4.33l-6.69 6.69-.787-1.18-.787 3.936 3.936-.787-1.18-1.18 6.297-6.297-.787-1.18zm3.936 2.36v9.052h-1.18l1.968 3.542 2.36-3.542H22.04v-9.052h-1.574zm4.723-1.18l6.69 6.297-1.18 1.18 3.936.787-.787-3.936-1.18 1.18-6.297-6.69-1.18 1.18zm2.36-4.33h9.052v1.574l3.542-2.36-3.542-1.968v1.574H27.55v1.18zm-1.18-4.723l6.297-6.297 1.18 1.18.787-3.936-3.936.787 1.18.787-6.69 6.69 1.18.787z"/><use xlink:href="#C"/></g><use xlink:href="#C" stroke="#036c9b" fill="none" class="B D"/></symbol><defs ><path id="C" d="M26.76 34.248c4.33-3.15 5.5-9.052 2.36-13.382-2.755-4.33-8.66-5.116-12.988-2.36-4.33 3.15-5.5 9.052-2.36 13.382s9.052 5.5 12.988 2.36z"/></defs></svg>